<?xml version="1.0" encoding="utf-8"?>
<!-- Generator: Adobe Illustrator 16.0.0, SVG Export Plug-In . SVG Version: 6.00 Build 0)  -->
<!DOCTYPE svg PUBLIC "-//W3C//DTD SVG 1.1//EN" "http://www.w3.org/Graphics/SVG/1.1/DTD/svg11.dtd">
<svg version="1.1" id="Layer_1" xmlns="http://www.w3.org/2000/svg" xmlns:xlink="http://www.w3.org/1999/xlink" x="0px" y="0px"
	 width="1000px" height="369.109px" viewBox="0 0 1000 369.109" enable-background="new 0 0 1000 369.109" xml:space="preserve">
<g>
	<path fill-rule="evenodd" clip-rule="evenodd" d="M933.131,24.826c3.334,3.373,2.917,7.864-1.047,10.428
		c-8.441,5.471-16.824,11.029-25.508,16.098c-7.452,4.337-15.283,8.034-22.92,12.065c-1.609,0.848-3.063,1.992-4.652,2.884
		c-6.473,3.639-13.045,6.944-20.39,8.673c-3.916,0.906-7.482,3.203-11.368,4.289c-9.401,2.636-17.552,7.938-26.391,11.746
		c-0.368,0.16-0.697,0.402-1.463,0.853c1.086,0.692,1.957,1.284,2.869,1.808c20.1,11.562,39.909,23.593,59.088,36.638
		c4.71,3.208,9.361,6.493,13.984,9.813c3.742,2.685,7.057,5.83,9.624,9.697c0.542,0.828,1.144,1.764,1.25,2.723
		c0.319,2.621,0.553,5.219,1.715,7.689c0.34,0.747,0.04,2.016-0.357,2.864c-1.658,3.692-5.011,5.16-8.626,6.096
		c-0.698,0.175-1.628-0.135-2.307-0.488c-1.909-0.976-3.779-2.012-5.563-3.174c-10.951-7.211-21.903-14.421-32.825-21.705
		c-11.91-7.966-23.909-15.822-35.615-24.079c-7.221-5.083-13.976-10.84-20.963-16.286c-0.697-0.562-1.415-1.124-2.103-1.662
		c-0.263,0.155-0.563,0.257-0.572,0.358c-0.232,7.099-1.521,14.106-1.395,21.263c0.135,9.236-0.398,18.487-0.612,27.732
		c-0.058,2.283-0.745,4.008-3.003,5.152c-2.628,1.317-5.031,3.071-7.482,4.617c-4.1-1.278-4.38-1.55-4.643-5.994
		c-0.154-2.471-0.591-4.69-1.744-6.954c-2.325-4.545-2.451-9.648-2.55-14.604c-0.164-7.719-0.493-15.516,0.301-23.167
		c1.154-10.98,0.61-21.941,0.775-32.912c0.098-6.082-0.184-12.172-0.173-18.259c0.019-10.06-0.117-20.129,0.299-30.184
		c0.253-6.29,3.664-11.324,8.51-15.259c1.56-1.26,3.393-2.239,5.195-3.14c1.491-0.741,2.276-0.431,2.829,1.163
		c1.172,3.339,2.258,6.663,2.007,10.355c-0.175,2.5,0.329,5.069,0.552,7.588c0.155,1.619,0.494,3.222,0.514,4.846
		c0.136,10.869,0.882,21.723,0,32.611c-0.358,4.744-0.048,9.532-0.048,14.281c1.472,0.746,2.742,1.366,4.167,2.069
		c3.953-2.302,8.005-4.638,12.027-6.997c23.132-13.486,47.255-24.941,72.007-35.151c9.381-3.862,18.577-8.271,27.62-12.865
		c4.497-2.278,8.548-5.476,12.686-8.402c1.793-1.25,3.751-1.677,5.263-0.664c1.696,1.133,1.958,2.214,1.163,4.778
		C933.199,24.239,933.188,24.438,933.131,24.826"/>
	<path fill-rule="evenodd" clip-rule="evenodd" d="M252.625,301.065c0,6.639-0.061,12.826,0.015,19.02
		c0.155,11.688,0.342,23.376,0.625,35.063c0.07,2.656-0.46,4.594-2.932,6.105c-2.471,1.513-4.591,3.595-7.154,5.66
		c-0.402-0.989-0.834-1.668-0.95-2.395c-0.426-2.606-0.938-5.224-1.095-7.85c-0.695-11.348-1.093-22.736-1.946-34.084
		c-1.146-15.313-1.155-30.67-1.732-46.001c-0.266-6.992,0.024-14.009-0.119-21.016c-0.113-5.693-0.63-11.364-0.725-17.047
		c-0.084-5.18,0.155-10.365,0.255-15.555c0.063-3.605,3.026-6.997,7.099-7.854c0.303,0.978,0.606,1.972,0.999,3.271
		c0.918-0.121,1.904-0.199,2.859-0.402c4.475-0.931,8.911-2.055,13.411-2.82c6.226-1.062,12.509-1.435,18.815-0.616
		c1.613,0.219,3.247,0.209,4.858,0.412c8.698,1.058,16.808,4.022,24.289,8.417c6.307,3.702,10.53,9.449,13.587,16.044
		c2.208,4.754,3.552,9.731,3.695,14.983c0.089,3.241,0.1,6.488,0.012,9.735c-0.16,5.214-2.461,9.464-5.852,13.359
		c-8.058,9.274-18.29,15.017-29.723,18.923c-0.46,0.159-0.896,0.373-1.611,0.673c0.53,0.602,0.873,1.047,1.279,1.43
		c14.464,13.413,28.958,26.797,43.369,40.269c1.2,1.104,2.06,2.732,2.704,4.283c0.791,1.86,1.221,3.877,1.728,5.834
		c0.923,3.527-0.279,6.173-3.782,8.47c-2.954,1.919-5.137,1.9-8.073-0.504c-3.682-3.033-7.201-6.289-10.818-9.4
		c-16.567-14.295-33.854-27.664-51.718-40.277c-2.486-1.745-5.131-3.29-7.775-4.807C255.22,301.812,254.03,301.564,252.625,301.065
		 M247.867,232.072c-0.061,1.178-0.18,1.973-0.134,2.752c0.446,8.432,0.814,16.849,1.422,25.262
		c0.344,4.754,1.049,9.487,1.679,14.217c0.114,0.819,0.484,1.963,1.09,2.277c1.405,0.731,3.016,1.449,4.56,1.469
		c6.486,0.053,13,0.62,19.397-1.135c2.044-0.571,4.172-0.853,6.272-1.226c7.308-1.294,14.542-2.801,21.44-5.684
		c4.725-1.981,7.712-5.48,9.645-10.017c1.48-3.47,0.81-5.529-2.158-7.98c-10.043-8.314-21.474-13.723-34.158-16.732
		c-7.661-1.808-15.45-2.297-23.242-2.932C251.806,232.198,249.916,232.164,247.867,232.072"/>
	<path fill-rule="evenodd" clip-rule="evenodd" d="M581.376,108.477c-2.307-0.402-4.564-1.052-6.846-1.153
		c-13.101-0.557-26.211-1.167-39.326-1.396c-6.896-0.111-13.789,0.513-21.048,0.828c-0.676,3.078-1.349,6.121-1.996,9.164
		c-2.217,10.539-2.028,21.229-1.88,31.908c0.041,2.821,0.421,5.641,0.516,8.456c0.119,3.204-1.661,5.374-4.276,6.867
		c-1.846,1.042-3.84,1.827-5.86,2.752c-3.186-1.643-5.233-4.046-5.795-7.676c-0.252-1.701-0.877-3.349-1.061-5.059
		c-0.25-2.195-0.255-4.429-0.308-6.648c-0.029-1.115,0.184-2.243,0.114-3.343c-0.64-9.193,0.696-18.254,1.559-27.369
		c1.453-15.351,5.194-30.247,9.085-45.079c1.359-5.156,3.954-9.992,5.953-14.978c4.274-10.694,11.736-18.952,20.277-26.302
		c4.967-4.269,10.638-7.589,16.725-9.929c3.583-1.381,7.523-1.633,11.077,0.712c1.611,1.062,3.368,1.958,4.788,3.232
		c9.592,8.611,17.608,18.307,21.018,31.124c2.586,9.721,5.207,19.436,7.926,29.108c1.244,4.4,3.145,8.635,4.123,13.074
		c1.33,6.145,2.142,12.415,3.051,18.642c1.221,8.334,2.357,16.713,3.483,25.062c0.56,4.128,0.943,8.281,1.582,12.4
		c0.459,2.98-0.241,5.524-2.594,7.355c-2.387,1.865-4.878,3.64-7.506,5.127c-2.285,1.289-3.305,0.96-4.274-1.546
		c-1.086-2.82-1.662-5.843-2.322-8.814c-2.445-10.85-2.684-21.975-4.089-32.956C582.915,117.611,582.116,113.221,581.376,108.477
		 M575.447,83.663c0-0.737,0.059-1.047-0.01-1.333c-1.55-7.273-3.975-14.271-6.897-21.098c-0.234-0.548-0.63-1.032-1.008-1.512
		c-2.333-2.951-4.901-5.733-6.946-8.868c-2.324-3.571-5.544-5.563-9.473-6.639c-2.159-0.582-4.356-0.969-6.521-1.517
		c-2.184-0.548-3.792,0.295-5.011,2.016c-1.111,1.57-2.253,3.16-3.133,4.855c-3.66,7.143-7.203,14.343-10.84,21.49
		c-2.883,5.631-4.918,11.582-6.755,17.614c-0.188,0.615-0.188,1.285-0.298,2.123c1.842-0.548,3.489-0.8,4.928-1.497
		c5.314-2.559,11.018-3.62,16.791-4.007c9.423-0.63,18.866-0.906,28.303-1.338C570.793,83.851,573.011,83.764,575.447,83.663"/>
	<path fill-rule="evenodd" clip-rule="evenodd" d="M475.382,319.372c0.525,4.855-0.051,9.803-1.301,14.64
		c-0.55,2.122-1.335,4.313-2.52,6.115c-6.817,10.389-16.623,16.843-28.245,20.662c-1.756,0.563-3.826,0.368-5.725,0.231
		c-12.897-1.017-25.605-3.091-38.068-6.637c-7.826-2.221-14.271-6.388-19.976-12.27c-5.003-5.157-6.935-11.045-7.162-17.848
		c-0.095-2.737,0.431-3.358,3.101-4.007c0.397-0.097,0.8-0.15,1.192-0.258c3.685-0.974,6.876-0.586,10.241,1.779
		c8.693,6.08,17.997,11.077,28.347,13.858c7.286,1.968,14.673,3.439,22.21,3.673c3.206,0.088,6.43-0.862,9.66-1.018
		c5.052-0.232,8.158-3.275,10.748-7.055c3.53-5.147,4.446-11.049,4.567-17.125c0.02-0.775-0.293-1.604-0.632-2.317
		c-3.612-7.548-8.756-13.417-16.526-17.216c-7.9-3.862-16.187-5.84-24.727-7.264c-10.617-1.778-21.217-3.659-31.842-5.476
		c-2.883-0.494-5.795-0.907-8.697-1.337c-2.842-0.422-5.18-1.735-7.046-3.902c-0.72-0.848-1.463-1.71-2.026-2.66
		c-3.496-5.96-4.749-12.468-4.356-19.285c0.085-1.458,0.629-2.976,1.292-4.308c5.691-11.335,13.902-20.459,24.466-27.461
		c4.07-2.708,8.18-5.345,12.916-6.73c1.553-0.45,3.147-0.805,4.739-1.022c7.467-1.018,14.917-1.26,22.465-0.548
		c5.076,0.48,10.161,0.688,14.949,2.525c3.587,1.381,7.115,2.976,10.51,4.782c3.562,1.899,5.379,7.424,3.671,10.966
		c-0.516,1.061-1.762,2.19-2.862,2.452c-2.233,0.518-4.644,0.833-6.912,0.586c-4.833-0.548-9.607-1.624-14.436-2.244
		c-3.716-0.484-7.477-0.843-11.208-0.794c-6.709,0.087-13.452,0.344-19.962,2.099c-5.808,1.574-11.503,3.818-16.032,7.815
		c-3.385,2.976-6.074,6.784-8.839,10.399c-1.388,1.812-0.777,2.878,1.374,4.002c6.125,3.213,12.689,4.787,19.487,5.675
		c5.246,0.692,10.494,1.086,15.763,1.473c6.973,0.499,14.009,1.231,20.807,2.797c18.717,4.326,30.247,16.179,34.693,34.874
		C474.819,307.646,475.724,313.359,475.382,319.372"/>
	<path fill-rule="evenodd" clip-rule="evenodd" d="M511.363,212.708c0.317,0.387,0.519,0.519,0.569,0.692
		c0.908,3.218,3.484,3.484,6.202,3.61c9.03,0.45,18.073,0.795,27.093,1.43c8.409,0.597,16.816,1.391,25.188,2.351
		c3.301,0.382,6.555,1.381,9.774,2.267c0.734,0.199,1.608,0.936,1.896,1.644c1.474,3.73,1.89,7.689,1.835,11.664
		c-0.01,0.862-0.721,1.875-1.379,2.539c-4.077,4.051-9.12,5.029-14.622,4.419c-6.76-0.747-13.522-1.682-20.296-2.269
		c-9.958-0.848-19.734-2.587-29.409-5.059c-0.865-0.213-1.742-0.401-2.922-0.669c-0.86,14.872,0.712,29.598-1.361,44.503
		c1.842,0,3.532,0.093,5.23-0.023c1.701-0.111,3.404-0.504,5.109-0.64c12.693-0.999,25.383-1.222,38.096-0.654
		c2.809,0.126,5.661,0.64,8.375,1.438c3.741,1.11,5.047,3.271,4.585,7.128c-0.134,1.179,0.249,1.896,0.813,2.758
		c1.851,2.797,1.499,5.335-1.008,7.55c-3.174,2.819-7.01,2.787-10.91,2.472c-1.698-0.141-3.438-0.479-5.096-0.253
		c-4.775,0.65-9.501,0.723-14.255-0.102c-4.819-0.81-9.663-1.157-14.56-1.109c-3.012,0.029-6.014-0.674-9.038-1.071
		c-1.885-0.257-3.779-0.557-5.64-0.823c-1.171,4.337,0.437,31.313,2.178,37.132c3.921,1.299,8.078,1.716,12.217,1.833
		c10.26,0.319,20.528,0.571,30.79,0.571c7.006,0.009,14.018-0.465,21.032-0.688c2.735-0.087,5.479-0.116,8.213-0.097
		c0.556,0,1.311,0.184,1.602,0.563c1.261,1.637,2.358,3.546,1.945,5.592c-0.317,1.579-0.009,2.781,0.744,3.982
		c0.918,1.464,0.725,2.607-0.664,3.693c-2.551,2.006-4.967,4.206-7.576,6.125c-1.002,0.736-2.367,1.104-3.639,1.327
		c-1.368,0.242-2.823,0.165-4.252,0.165c-10.782,0.01-21.559-0.02-32.343,0.01c-8.435,0.02-16.86,0.204-25.3,0.136
		c-3.028-0.029-6.068-0.476-9.066-0.901c-1.691-0.242-2.675-1.347-3.423-3.024c-2.84-6.435-3.722-13.296-4.536-20.147
		c-0.681-5.641-1.081-11.325-1.453-17.005c-0.255-4.041-0.348-8.106-0.384-12.161c-0.063-9.469-0.208-18.924-0.004-28.367
		c0.118-5.878,0.983-11.746,1.206-17.619c0.308-7.715,0.262-15.443,0.484-23.162c0.126-4.473,0.42-8.941,0.736-13.399
		c0.229-3.227,1.536-5.911,4.509-7.486C509.495,213.129,510.488,212.975,511.363,212.708"/>
	<path fill-rule="evenodd" clip-rule="evenodd" d="M337.633,113.521c-0.334,3.842-0.23,7.797-1.112,11.509
		c-1.875,7.917-6.277,14.459-12.351,19.853c-4.972,4.419-10.631,7.826-16.433,11.02c-3.384,1.86-6.83,3.619-10.107,5.646
		c-4.819,2.945-10.118,4.414-15.61,4.758c-8.441,0.509-16.856-0.136-25.103-2.244c-17.377-4.463-27.466-15.772-31.093-33.105
		c-1.871-8.926-1.885-17.91-0.918-26.981c0.582-5.476,1.26-10.902,2.839-16.175c5.905-19.805,19.139-31.851,39.095-36.677
		c6.372-1.536,12.965-2.05,19.402-1.405c11.317,1.125,22.145,4.23,31.32,11.499c8.921,7.055,14.101,16.446,16.766,27.291
		c1.109,4.526,1.529,9.221,2.461,13.791C337.548,106.02,337.875,109.731,337.633,113.521 M274.094,73.544
		c-5.861,0.431-12.747,0.955-19.64,1.429c-1.534,0.107-2.704,0.645-3.513,2.011c-1.384,2.365-3.067,4.589-4.233,7.055
		c-6.619,13.902-7.283,28.444-3.552,43.127c1.473,5.781,5.364,10.171,11.545,11.944c1.732,0.504,3.326,1.517,5.003,2.229
		c1.204,0.494,2.451,0.906,3.697,1.318c5.318,1.739,10.852,1.26,16.309,1.512c5.567,0.248,10.956-0.77,16.143-2.689
		c12.463-4.603,20.978-12.671,23.594-26.302c2.132-11.15-0.449-20.778-8.219-28.934c-2.847-3.009-6.282-5.466-9.293-8.344
		c-2.68-2.554-5.886-3.494-9.413-3.653C286.731,73.985,280.94,73.801,274.094,73.544"/>
	<path fill-rule="evenodd" clip-rule="evenodd" d="M629.519,351.029c-0.509-1.793-1.221-3.402-1.41-5.078
		c-0.654-5.543-1.294-11.106-0.354-16.688c0.049-0.291,0.117-0.601,0.097-0.901c-0.602-10.902,1.426-21.67,1.667-32.534
		c0.048-2.03,0.286-4.07,0.242-6.101c-0.188-8.46,1.183-16.801,2.069-25.174c1.273-12.041,4.443-23.738,6.392-35.664
		c0.222-1.289,0.722-2.277,1.671-3.105c1.919-1.667,3.766-3.417,5.733-5.011c2.354-1.896,4.525-1.687,6.561,0.635
		c1.337,1.517,2.539,3.184,3.722,4.825c2.674,3.698,5.214,7.508,8,11.127c6.455,8.397,12.381,17.139,17.848,26.2
		c1.55,2.598,3.493,4.978,5.242,7.463c1.735,2.472,3.46,4.952,5.379,7.704c0.465-1.124,0.823-1.929,1.129-2.752
		c3.203-8.571,6.847-16.95,11.286-24.966c0.146-0.275,0.314-0.528,0.427-0.819c4.172-11.109,12.385-19.212,20.468-27.392
		c1.646-1.677,4.051-2.616,6.115-3.906c1.434-0.901,2.674-0.426,3.896,0.523c1.995,1.551,3.431,3.533,3.982,5.975
		c0.669,2.957,1.327,5.941,1.638,8.955c1.92,19.422,3.74,38.844,5.602,58.27c0.088,1.013,0.059,2.036,0.098,3.054
		c0.368,10.447,0.756,20.914,1.104,31.375c0.251,7.607,0.445,15.235,0.736,22.853c0.087,2.646-0.678,4.691-2.975,6.231
		c-1.405,0.95-2.529,2.316-3.761,3.519c-0.882,0.871-1.726,1.793-3.508,1.152c-0.418-1.434-1.135-3.033-1.377-4.699
		c-1.279-8.645-2.112-17.339-2.49-26.061c-0.146-3.654-0.514-7.312-0.455-10.951c0.174-9.788-0.883-19.499-1.299-29.244
		c-0.504-11.663-2.52-23.249-1.93-34.966c0.059-1.305-0.349-2.604-0.514-3.911c-0.464-3.619-0.93-7.24-1.424-11.193
		c-0.562,0.625-1.066,1.051-1.405,1.574c-8.752,13.186-16.185,27.021-21.117,42.12c-1.329,4.035-3.223,7.903-4.778,11.861
		c-1.172,2.966-3.296,5.112-5.757,6.959c-3.179,2.374-6.691,1.904-9.1-1.192c-5.937-7.608-12.309-14.867-17.202-23.279
		c-1.658-2.858-4.216-5.203-6.237-7.879c-4.715-6.245-9.356-12.55-14.028-18.825c-0.523-0.707-1.08-1.396-2.006-2.588
		c-0.388,3.286-0.746,5.966-1.018,8.66c-1.299,13.461-2.587,26.912-3.857,40.373c-1.152,12.246-2.287,24.491-3.421,36.736
		c-0.251,2.626-0.445,5.271-0.731,7.897C638.037,346.242,634.209,350.147,629.519,351.029"/>
	<path fill-rule="evenodd" clip-rule="evenodd" d="M982.131,336.182c0.155-2.132,0.358-3.849,0.377-5.553
		c0.107-8.05,1.048-15.997,2.123-23.968c0.688-5.116,0.717-10.341,0.707-15.521c-0.02-11.402,0.979-22.745,1.949-34.095
		c0.329-3.838,0.804-7.675,1.084-11.522c0.117-1.614-0.028-3.236-0.116-4.86c-0.106-2.074,0.397-3.697,2.375-4.865
		c2.238-1.318,4.294-2.956,6.542-4.54c1.793,2.341,2.578,4.69,2.616,7.268c0.107,7.317,0.291,14.645,0.175,21.957
		c-0.155,9.953-0.524,19.91-0.862,29.868c-0.068,2.234-0.379,4.453-0.485,6.688c-0.193,3.634-0.261,7.287-0.445,10.922
		c-0.358,6.809-0.834,13.602-1.145,20.4c-0.193,4.361-0.28,8.732-0.223,13.093c0.05,4.575,0.291,9.149,0.554,13.704
		c0.077,1.357-0.263,2.433-1.329,3.217c-2.78,2.035-5.582,4.051-8.401,6.019c-1.503,1.047-2.859,0.407-4.216-0.484
		c-6.416-4.254-11.979-9.429-16.553-15.622c-2.666-3.596-5.253-7.24-7.696-10.98c-5.115-7.825-10.224-15.643-15.681-23.244
		c-12.599-17.581-22.726-36.58-31.574-56.293c-0.436-0.998-0.92-1.991-1.918-2.99c-0.582,2.806-1.23,5.592-1.716,8.412
		c-1.841,10.714-3.866,21.399-5.33,32.171c-0.911,6.822-1.086,13.762-1.357,20.651c-0.387,9.959-0.427,19.926-0.881,29.87
		c-0.146,3.198-0.708,6.522-1.881,9.487c-1.443,3.692-4.768,5.718-8.664,6.465c-0.572,0.106-1.647-0.515-1.899-1.057
		c-0.63-1.474-1.289-3.072-1.327-4.643c-0.107-4.147,0.115-8.306,0.222-12.463c0.098-3.964,0.291-7.918,0.311-11.882
		c0.097-12.414,0.805-24.776,2.742-37.065c0.709-4.505,0.892-9.09,1.436-13.625c1.027-8.476,1.957-16.971,3.227-25.392
		c1.338-8.839,2.994-17.629,4.584-26.424c0.62-3.392,4.71-7.317,8.082-7.85c0.515-0.082,1.231,0.131,1.639,0.47
		c0.756,0.648,1.405,1.453,2.025,2.253c3.586,4.695,6.726,9.613,9.1,15.094c6.175,14.285,13.414,28.044,21.264,41.476
		c0.872,1.492,1.918,2.729,3.266,3.915c1.696,1.493,2.946,3.585,4.129,5.568c2.937,4.878,5.708,9.851,8.558,14.773
		c6.454,11.169,14.867,20.837,23.434,30.374C981.133,335.562,981.413,335.688,982.131,336.182"/>
	<path fill-rule="evenodd" clip-rule="evenodd" d="M14.713,304.748c0.228,3.242,0.446,6.042,0.63,8.853
		c0.327,5.364,0.64,10.744,0.967,16.118c0.203,3.343,0.577,6.667,0.61,10.011c0.032,2.326-0.288,4.661-0.63,6.978
		c-0.143,0.94-0.521,2.074-1.18,2.685c-2.433,2.238-5.345,3.587-9.091,4.081c-0.829-4.197-1.907-8.219-2.377-12.318
		c-0.634-5.534-0.729-11.106-1.196-16.655c-0.342-4.036-1.062-8.048-1.374-12.085c-0.313-4.147-0.352-8.325-0.487-12.488
		c-0.214-6.808-0.531-13.601-0.57-20.404c-0.061-10.176,0.124-20.337,0.138-30.499c0.01-6.101-0.223-12.196-0.133-18.293
		c0.058-4.147,0.475-8.3,0.739-12.452c0.024-0.394,0.114-0.819,0.308-1.158c1.553-2.675,3.642-4.798,6.396-6.45
		c2.543,3.286,2.728,6.954,3.29,10.563c1.185,7.563,0.371,15.172,0.744,22.76c0.445,9.13,1.136,18.254,1.548,27.394
		c0.208,4.55,0.034,9.12,0.034,13.863c0.72,0.083,1.4,0.237,2.07,0.209c4.966-0.209,9.924-0.412,14.847-1.323
		c3.285-0.605,6.663-0.698,9.991-1.003c10.838-0.979,21.651-1.968,32.479-2.864c2.614-0.218,5.257-0.034,8.211-0.034
		c0.175-1.206,0.417-2.161,0.441-3.116c0.259-11.482,0.438-22.973,0.734-34.452c0.07-2.529,0.601-5.054,0.71-7.579
		c0.109-2.941,0.075-5.878-0.029-8.813c-0.188-4.817,0.853-9.29,3.547-13.293c1.042-1.56,2.68-2.437,4.785-2.975
		c0.413,1.483,0.962,2.898,1.17,4.38c0.701,5.123,1.289,10.264,1.914,15.41c0.07,0.597-0.019,1.24,0.136,1.817
		c1.141,4.113,0.625,8.263,0.356,12.419c-0.232,3.528-0.346,7.085-0.456,10.631c-0.213,6.596-0.407,13.201-0.562,19.806
		c-0.089,4.163-0.147,8.324-0.152,12.496c-0.015,14.945-0.042,29.894,0.015,44.843c0.009,3.252,0.383,6.488,0.446,9.745
		c0.065,3.236-0.02,6.482-0.083,9.73c-0.037,1.957-0.855,3.527-2.597,4.525c-2.624,1.493-5.265,2.975-8.197,4.643
		c-0.262-1.058-0.477-1.687-0.56-2.326c-1.386-10.409-1.788-20.847-1.396-31.338c0.174-4.463,0.08-8.945,0.174-13.418
		c0.048-2.329,0.333-4.651,0.361-6.992c0.027-1.7-0.186-3.406-0.297-5.199C58.944,302.369,37.008,303.551,14.713,304.748"/>
	<path fill-rule="evenodd" clip-rule="evenodd" d="M845.124,361.245c-2.026-5.108-3.208-10.129-4.071-15.245
		c-1.734-10.244-2.113-20.585-2.354-30.954c-0.078-2.82-0.514-5.637-0.785-8.674c-1.212-0.054-2.21-0.122-3.18-0.146
		c-8.944-0.228-17.899-0.334-26.825-0.711c-4.661-0.199-9.303-0.873-13.946-1.319c-0.592-0.054-1.192-0.01-2.083-0.01
		c-0.717,3.605-1.541,7.143-2.094,10.729c-1.677,10.666-2.51,21.404-2.441,32.2c0.009,1.928-0.408,3.576-1.58,5.088
		c-1.435,1.851-2.811,3.731-4.235,5.592c-1.202,1.57-2.694,2.753-5.127,3.17c-0.35-1.018-0.95-2.075-1.026-3.18
		c-0.407-4.749-1.048-9.535-0.844-14.274c0.33-8.016,0.92-16.03,1.938-23.987c2.045-16.044,5.34-31.87,10.272-47.299
		c3.256-10.146,6.813-20.211,10.398-30.261c2.133-5.975,5.331-11.374,10.031-15.813c2.336-2.19,4.836-3.992,7.578-5.577
		c2.258-1.303,4.187-1.046,5.805,0.635c2.249,2.322,4.604,4.677,6.281,7.399c5.795,9.483,10.427,19.534,13.685,30.189
		c0.29,0.979,0.813,1.875,1.104,2.839c0.679,2.22,1.396,4.438,1.879,6.701c0.922,4.366,1.706,8.776,2.529,13.167
		c0.137,0.692,0.331,1.429,0.253,2.104c-0.154,1.273,0.397,2.257,1.289,2.916c2.161,1.619,2.849,3.911,3.081,6.372
		c0.34,3.431,0.496,6.891,0.718,10.341c0.029,0.295,0.077,0.654-0.049,0.896c-2.054,3.73-0.591,7.627-0.213,11.343
		c0.504,4.963,0.62,9.93,0.931,14.883c0.34,5.349,1.366,10.67,2.103,16c0.301,2.22,0.572,4.448,0.931,6.648
		c0.213,1.317-0.126,2.326-1.065,3.284C851.606,358.753,848.844,360.478,845.124,361.245 M796.53,283.475
		c0.281,0.082,0.571,0.228,0.862,0.228c11.659-0.188,23.327-0.396,34.996-0.62c0.155,0,0.301-0.223,0.717-0.538
		c-0.823-2.79-1.55-5.732-2.578-8.577c-1.443-4.001-3.45-7.84-4.545-11.925c-0.969-3.591-2.248-6.93-4.255-10.011
		c-2.044-3.146-4.147-6.275-6.25-9.387c-0.417-0.635-0.989-1.162-1.521-1.769C807.288,248.601,796.928,274.05,796.53,283.475"/>
	<path fill-rule="evenodd" clip-rule="evenodd" d="M374.603,110.648c2.392,3.503,4.109,6.91,4.456,10.874
		c0.031,0.305,0.055,0.62,0.169,0.892c4.073,10.186,9.736,19.009,20.115,23.875c3.44,1.619,6.998,2.694,10.874,2.486
		c1.923-0.112,3.874-0.146,5.795,0c8.523,0.635,17.888-4.832,20.318-16.131c1.589-7.404,2.12-14.872,1.415-22.431
		c-0.369-4.026-0.545-8.087-0.833-12.128c-0.453-6.266-0.72-12.56-1.401-18.796c-1.344-12.318-3.074-24.592-4.341-36.919
		c-0.688-6.75-0.698-13.568-1.131-20.347c-0.138-2.147,0.538-3.857,2.173-5.059c1.878-1.362,3.891-2.534,5.88-3.736
		c1.42-0.848,2.704-0.363,3.957,0.508c2.872,1.997,3.722,5.079,4.049,8.204c1.131,10.719,2.108,21.452,3.055,32.186
		c0.914,10.326,1.58,20.672,2.601,30.988c0.864,8.698,1.964,17.382,3.19,26.036c1.865,13.277,0.87,26.191-4.788,38.465
		c-1.871,4.056-4.451,7.545-8.291,10.283c-5.593,3.973-11.553,6.662-18.228,8.063c-3.373,0.708-6.706,1.662-10.021,2.621
		c-4.933,1.415-9.737,1.188-14.673-0.267c-18.811-5.549-29.709-18.234-34.009-37.055c-1.163-5.112-1.454-10.243-1.177-15.453
		c0.061-1.124,0.349-1.905,1.424-2.423C368.267,113.871,371.328,112.286,374.603,110.648"/>
	<path fill-rule="evenodd" clip-rule="evenodd" d="M112.431,297.44c0.487-5.631,1.013-11.488,1.507-17.348
		c0.454-5.257,0.652-10.548,1.372-15.772c1.34-9.623,4.271-18.801,8.717-27.471c0.923-1.802,1.548-3.76,2.49-5.548
		c4.843-9.183,11.632-16.403,21.436-20.322c2.229-0.893,4.686-1.483,7.072-1.672c13.917-1.066,25.956,3.596,36.553,12.38
		c0.855,0.713,1.757,1.488,2.268,2.443c4.63,8.571,9.464,17.115,11.543,26.768c0.933,4.355,1.504,8.828,1.855,13.267
		c0.63,7.787,1.415,15.608,1.335,23.405c-0.16,15.647-2.817,30.931-8.206,45.665c-2.045,5.555-4.667,10.816-8.063,15.682
		c-2.423,3.449-5.312,6.406-8.829,8.771c-6.614,4.429-13.537,8.209-21.217,10.496c-4.44,1.318-8.783,1.26-13.129-0.378
		c-17.675-6.639-28.374-19.422-33.106-37.457c-1.529-5.825-2.418-11.731-2.675-17.756
		C113.141,307.63,112.758,302.673,112.431,297.44 M194.408,282.497c1.611-7.443-0.814-15.148-2.874-22.905
		c-0.918-3.432-1.87-6.857-2.946-10.245c-0.358-1.133-0.97-2.272-1.769-3.134c-9.05-9.891-20.253-15.42-33.721-14.843
		c-11.667,0.509-16.716,4.448-21.023,16.165c-1.917,5.209-2.823,10.807-3.959,16.267c-1.94,9.28-2.711,18.695-3.028,28.148
		c-0.194,5.671-0.734,11.358-0.56,17.019c0.208,7.177,1.914,14.115,5.478,20.425c5.626,9.967,14.007,15.754,25.639,16.625
		c4.634,0.35,9.134-0.329,13.611-1.124c7.547-1.347,12.701-5.524,15.887-12.715c2.784-6.285,4.763-12.729,6.197-19.383
		C193.435,303.067,195.763,293.351,194.408,282.497"/>
	<path fill-rule="evenodd" clip-rule="evenodd" d="M65.878,22.747c4.863-3.842,10.118-5.791,15.734-7.07
		c5.117-1.158,10.222-1.207,15.434-0.761c17.035,1.463,34.113,0.78,51.173,0.606c6.995-0.063,13.982-0.421,20.984-0.524
		c7.13-0.102,13.922,1.469,20.293,4.676c1.4,0.713,2.75,1.774,3.731,2.985c4.616,5.684,6.739,12.429,7.964,19.528
		c0.17,0.999,0.444,1.991,0.562,2.985c0.356,2.941,0.322,5.771-0.824,8.654c-4.332,10.874-11.249,19.455-21.541,25.203
		c-0.432,0.237-0.819,0.552-1.214,0.819c0.163,0.291,0.213,0.518,0.356,0.591c9.488,5.936,14.332,14.978,16.951,25.464
		c1.359,5.446,2.217,10.951,1.613,16.601c-0.392,3.678-1.679,6.891-4.478,9.401c-4.237,3.799-8.334,7.773-12.746,11.344
		c-8.972,7.269-19.521,11.097-30.7,13.422c-6.376,1.333-12.797,2.166-19.336,2.186c-9.125,0.024-18.271,0.388-27.4,0.179
		c-6.192-0.154-12.286-1.487-18.225-3.376c-1.5-0.48-2.477-1.207-2.968-2.699c-1.175-3.557-2.764-7.031-3.537-10.675
		c-1.296-6.052-2.319-12.172-2.992-18.317c-0.487-4.404-0.204-8.891-0.274-13.34c-0.014-0.708,0.085-1.483-0.162-2.118
		c-1.415-3.697-1.362-7.612-1.367-11.426c-0.014-9.158-1.022-18.244-1.606-27.358c-0.208-3.242-0.621-6.474-0.865-9.711
		c-0.267-3.552-0.499-7.094-0.664-10.651c-0.308-6.59-0.535-13.186-0.862-19.775c-0.046-0.862-0.453-1.739-0.824-2.548
		C67.454,25.674,66.708,24.346,65.878,22.747 M92.777,135.686c3.99,0.998,7.787,1.527,11.666,1.527
		c12.003,0.005,24.003,0.145,35.997-0.015c4.237-0.058,8.538-0.514,12.691-1.357c8.376-1.695,15.637-5.48,21.229-12.235
		c2.932-3.547,3.329-7.52,2.813-11.736c-0.169-1.333-0.909-2.704-1.713-3.824c-2.883-4.061-6.718-7.041-11.169-9.226
		c-6.231-3.058-12.906-4.283-19.783-4.317c-17.793-0.083-35.587-0.058-53.382-0.067c-0.887-0.006-1.771,0.102-2.856,0.169
		C89.787,108.356,91.261,121.875,92.777,135.686 M85.538,73.462c2.249,0.097,4.274,0.363,6.273,0.247
		c5.984-0.349,11.944-1.056,17.929-1.265c12.284-0.422,24.59-0.567,36.896-0.935c3.942-0.116,7.911-0.393,11.811-0.95
		c5.82-0.833,11.189-2.99,15.877-6.609c4.109-3.174,7.424-7.002,8.75-12.143c0.446-1.706,0.799-3.794,0.208-5.345
		c-1.505-3.984-4.688-6.745-8.63-8.059c-2.832-0.935-6.003-1.172-9.025-1.167c-6.699,0.029-13.386,0.533-20.081,0.582
		c-14.852,0.102-29.702-0.024-44.554,0.063c-4.873,0.029-9.745,0.383-14.612,0.635c-0.894,0.043-1.773,0.251-2.888,0.417
		C83.728,50.396,82.586,61.793,85.538,73.462"/>
	<path fill-rule="evenodd" clip-rule="evenodd" fill="#F7D53F" d="M735.824,61.978c4.351,5.063,13.034,10.127,18.82,2.171
		c5.775-7.957,7.239-28.212,0.727-29.656c-6.513-1.454-55.706-37.617-82.483-29.666c-26.758,7.962-65.816,47.028-57.867,88.255
		c7.966,41.237,33.285,86.806,78.868,81.751c45.56-5.067,72.327-30.387,72.327-30.387l-12.308-26.762
		c0,0-26.758,29.661-59.313,26.041c-32.553-3.615-59.306-30.383-52.077-60.774c7.24-30.378,23.149-47.014,47.015-42.671
		C713.407,44.62,735.824,61.978,735.824,61.978"/>
	<path fill-rule="evenodd" clip-rule="evenodd" d="M645.597,94.89c0,2.438,0.136,4.885-0.029,7.317
		c-0.188,2.767,0.587,5.199,1.865,7.574c2.351,4.371,5.433,8.15,9.464,11.004c2.82,1.987,5.849,3.673,8.819,5.408
		c3.092,1.788,6.231,3.445,9.333,5.19c17.174,9.633,34.473,10.729,51.887,0.703c8.433-4.841,16.021-10.772,22.814-17.726
		c0.649-0.654,1.27-1.352,2.006-1.855c2.433-1.648,3.828-1.361,5.572,1.032c6.688,9.125,10.313,19.509,12.6,30.47
		c0.339,1.575-0.388,2.5-1.211,3.538c-5.961,7.458-12.773,14.053-20.866,19.058c-7.423,4.575-15.234,8.529-22.92,12.696
		c-1.037,0.572-2.259,0.979-3.441,1.163c-7.325,1.153-14.614,2.621-21.983,3.218c-8.234,0.658-16.423-0.097-24.186-3.533
		c-2.112-0.93-4.429-1.569-6.717-1.938c-5.456-0.843-10.423-2.98-14.808-6.12c-5.776-4.129-11.631-8.315-16.708-13.243
		c-6.004-5.835-10.38-12.978-12.919-21.108c-0.722-2.312-1.641-4.589-2.692-6.779c-5.255-10.835-8.138-22.319-9.265-34.245
		c-0.535-5.66-0.951-11.358-0.911-17.033c0.063-10.156,2.313-19.94,5.954-29.413c9.885-25.692,28.574-41.567,54.964-48.273
		c13.374-3.396,26.825-2.36,39.904,2.418c5.559,2.036,10.952,4.346,16.054,7.332c1.144,0.659,2.385,1.148,3.557,1.73
		c1.552,0.78,3.218,1.391,4.594,2.394c6.232,4.54,12.783,8.756,18.462,13.931c6.688,6.092,10.119,13.854,8.17,23.313
		c-1.628,7.86-4.855,14.615-11.678,19.295c-1.6,1.1-3.247,1.526-5.146,1.25c-4.826-0.698-9.391-2.064-12.967-5.529
		c-10.167-9.852-22.465-15.56-36.062-18.768c-7.638-1.803-15.303-1.73-22.993-0.47c-1.491,0.257-3.009,0.436-4.502,0.736
		c-5.252,1.056-9.1,4.4-12.617,8.106c-6.077,6.411-9.387,14.227-10.617,22.872c-0.674,4.7-0.751,9.502-1.08,14.261
		C645.394,94.87,645.5,94.88,645.597,94.89 M739.139,137.29c-0.767,0.368-1.299,0.601-1.822,0.896
		c-9.527,5.238-19.731,8.558-30.325,10.767c-6.871,1.439-13.752,1.163-20.613,0.174c-8.81-1.27-16.645-5.069-24.345-9.313
		c-6.241-3.44-11.455-8.024-16.136-13.316c-2.879-3.251-4.816-6.924-5.937-11.174c-2.06-7.811-2.879-15.788-3.368-23.778
		c-0.426-7.012-0.135-14.018,1.668-20.895c3.358-12.822,9.672-23.647,20.759-31.313c6.968-4.816,14.779-7.55,23.036-9.236
		c5.359-1.095,10.835-1.197,16.024,0.082c14.329,3.519,27.189,10.089,38.189,20.076c0.563,0.514,1.211,0.959,2.016,1.594
		c2.374-5.854,4.672-11.451,6.997-17.154c-1.066-0.732-1.852-1.371-2.723-1.841c-7.512-4.071-14.896-8.378-22.586-12.066
		c-6.019-2.869-12.333-5.238-18.681-7.351c-6.334-2.103-12.967-2.244-19.596-1.4c-7.381,0.945-14.692,1.986-21.36,5.635
		c-3.038,1.652-6.183,3.116-9.367,4.448c-3.842,1.59-7.118,3.983-9.938,6.92c-2.578,2.708-5.166,5.514-7.264,8.601
		c-7.448,10.966-12.216,22.974-12.456,36.382c-0.129,7.089,0.184,14.227,0.742,21.312c0.797,10.486,3.122,20.701,7.329,30.382
		c11.464,26.366,31.869,40.486,60.192,43.689c8.049,0.916,16.03,0.358,24.016-0.688c9.353-1.216,18.316-3.697,26.631-8.214
		c2.221-1.206,4.304-2.64,6.475-3.983C744.139,150.034,741.706,143.812,739.139,137.29 M755.07,147.412
		c3.547-0.247,5.291-1.667,3.76-5.523c-0.707-1.774-1.54-3.528-2.47-5.2c-1.387-2.5-2.802-4.947-2.927-7.922
		c-0.029-0.538-0.291-1.216-0.688-1.57c-1.027-0.912-3.033-0.742-4.546,0.223c-2.394,1.551-3.082,2.67-2.51,4.584
		c0.795,2.631,1.628,5.243,2.577,7.811c0.669,1.798,1.483,3.562,2.434,5.233C751.533,146.501,752.783,147.543,755.07,147.412
		 M751.581,41.257c-1.967,3.765-3.76,7.162-5.515,10.573c-0.939,1.798-1.898,3.591-2.732,5.446c-0.63,1.405-0.174,3.48,0.834,4.202
		c1.385,0.979,2.742,0.407,3.982-0.344c0.67-0.417,1.241-1.051,1.774-1.642c2.539-2.782,4.07-6.111,4.798-9.735
		C755.371,46.529,753.918,43.922,751.581,41.257"/>
	<path fill-rule="evenodd" clip-rule="evenodd" d="M678.092,155.378c-0.029,3.863-1.541,4.884-5.417,4.318
		c-4.343-0.636-8.024-2.714-11.766-4.715c-2.21-1.178-2.578-1.759-1.852-4.139c0.484-1.575,1.474-3.063,2.529-4.371
		c0.437-0.538,1.726-0.896,2.434-0.673c3.963,1.216,7.917,2.534,11.784,4.032C677.544,150.504,678.111,152.359,678.092,155.378"/>
	<path fill-rule="evenodd" clip-rule="evenodd" d="M644.53,143.395c-0.358-0.242-1.259-0.664-1.88-1.342
		c-0.746-0.81-1.265-1.832-1.851-2.772c-1.866-3.004-3.702-6.023-5.563-9.018c-1.424-2.292-1.405-3.451,0.16-5.48
		c1.478-1.909,3.498-2.2,5.215-0.451c3.551,3.596,6.981,7.341,9.172,11.979c0.591,1.202,1.938,2.466,0.911,3.881
		c-1.24,1.734-2.878,3.154-5.243,3.203H644.53z"/>
	<path fill-rule="evenodd" clip-rule="evenodd" d="M700.605,163.631c-0.611,0-1.212,0.019-1.822,0
		c-4.536-0.175-5.127-0.732-5.669-5.243c-0.059-0.509-0.137-1.008-0.204-1.507c-0.456-3.271,0.01-3.794,3.198-3.935
		c3.323-0.13,6.657-0.344,9.992-0.566c2.655-0.185,4.467,1.327,4.632,4.041c0.067,0.911-0.073,1.822-0.043,2.733
		c0.034,1.521-0.664,2.636-2.065,3.019c-2.62,0.713-5.276,1.23-7.932,1.827C700.663,163.868,700.644,163.756,700.605,163.631"/>
	<path fill-rule="evenodd" clip-rule="evenodd" d="M640.993,46.273c-2.176-4.831-1.667-8.257,1.657-11.8
		c3.624-3.872,6.609-6.047,10.205-7.472c2.258,2.355,3.063,7.016,1.386,9.507c-3.028,4.501-7.074,7.802-12.173,9.754
		C641.816,46.365,641.479,46.273,640.993,46.273"/>
	<path fill-rule="evenodd" clip-rule="evenodd" d="M738.256,36.586c-0.319,1.114-0.504,1.904-0.775,2.665
		c-0.911,2.579-3.256,3.625-5.524,2.128c-3.866-2.568-7.626-5.331-11.31-8.17c-1.996-1.517-1.928-2.631-0.228-4.55
		c2.146-2.413,4.425-2.781,7.293-1.285c3.527,1.842,6.804,4.013,9.353,7.124C737.607,35.157,737.927,35.995,738.256,36.586"/>
	<path fill-rule="evenodd" clip-rule="evenodd" d="M704.781,28.813c-2.423-0.722-6.057-1.608-9.555-2.922
		c-2.099-0.775-2.259-1.745-1.629-3.906c0.631-2.171,2.074-3.789,3.998-4.739c1.037-0.518,2.603-0.523,3.741-0.169
		c2.307,0.722,4.511,1.803,6.721,2.795c2.814,1.26,3.387,2.399,2.733,5.238C710.18,27.767,708.818,28.823,704.781,28.813"/>
	<path fill-rule="evenodd" clip-rule="evenodd" d="M667.548,22.291c-0.021-3.062,0.029-3.377,2.8-4.171
		c3.102-0.877,6.285-1.634,9.479-2.055c2.48-0.32,3.498,0.533,4.021,2.34c0.592,2.021-0.159,4.361-2.111,5.166
		c-3.363,1.376-6.823,2.592-10.322,3.566c-2.315,0.634-3.653-0.61-3.861-3.019C667.509,23.513,667.548,22.907,667.548,22.291"/>
	<path fill-rule="evenodd" clip-rule="evenodd" d="M737.433,151.609c-0.223,0.412-0.476,1.531-1.163,2.025
		c-2.374,1.725-4.885,3.256-7.879,3.731c-2.19,0.348-3.306-0.199-4.356-2.341c-1.236-2.5-1.168-4.041,0.731-5.364
		c2.132-1.498,4.391-2.97,6.803-3.906c3.47-1.347,5.099-0.188,5.68,3.455C737.346,149.801,737.346,150.412,737.433,151.609"/>
</g>
</svg>
